#!OML:ASF H:\ManfredETheater\Project 1\Capture day 1\Session 1\subject.ASF
:FULLY-SPECIFIED
:DEGREES
1596
root 0.567572 17.9398 -4.39036 6.49004 2.92283 -2.19382
lowerback 5.14596 -0.405596 -0.0605762
upperback -2.22476 -0.457568 1.80905
thorax -5.17911 -0.191786 1.9547
lowerneck -21.1753 -3.25902 -4.07894
upperneck 9.58916 -4.17627 6.32592
head 6.56992 -1.6078 2.23003
rclavicle -2.12451e-015 -4.57205e-015
rhumerus -18.0974 -25.3797 -1.27686
rradius 24.4558
rwrist 4.90108
rhand -18.8698 -18.6865
rfingers 7.12502
rthumb 7.43084 -48.536
lclavicle -2.12451e-015 -4.57205e-015
lhumerus -18.756 25.48 9.22466
lradius 23.826
lwrist -18.1088
lhand -16.5859 16.5213
lfingers 7.12502
lthumb 9.63493 46.281
rfemur -12.4075 -3.96756 14.6427
rtibia 27.9101
rfoot -16.3289 -16.8851
rtoes 1.65953
lfemur -15.8267 -9.07439 -4.96507
ltibia 29.516
lfoot -13.837 13.2411
ltoes -8.75647
1597
root 0.56819 17.9381 -4.38864 6.46065 3.06332 -2.22982
lowerback 5.09118 -0.449305 -0.0317114
upperback -2.19697 -0.512005 1.86766
thorax -5.1168 -0.219185 2.00348
lowerneck -21.1581 -3.30907 -4.10014
upperneck 9.55667 -4.25135 6.42294
head 6.56392 -1.63679 2.2562
rclavicle -1.75303e-014 2.3059e-014
rhumerus -18.1091 -25.4112 -1.25107
rradius 24.3793
rwrist 4.87997
rhand -18.8108 -18.7606
rfingers 7.12502
rthumb 7.48773 -48.6081
lclavicle -1.75303e-014 2.3059e-014
lhumerus -18.6635 25.4802 9.29481
lradius 23.799
lwrist -18.1518
lhand -16.5657 16.5294
lfingers 7.12502
lthumb 9.65442 46.2881
rfemur -12.3531 -3.97508 14.6984
rtibia 27.9288
rfoot -16.3657 -17.0322
rtoes 1.74169
lfemur -15.8244 -9.0318 -4.89344
ltibia 29.4839
lfoot -13.8258 13.0239
ltoes -9.14107
1598
root 0.570675 17.9364 -4.38648 6.42794 3.20506 -2.25855
lowerback 5.03395 -0.494643 -0.00566856
upperback -2.16926 -0.569171 1.92176
thorax -5.05306 -0.247947 2.04924
lowerneck -21.1378 -3.35664 -4.11838
upperneck 9.52711 -4.3234 6.51493
head 6.55809 -1.66469 2.28063
rclavicle -4.83295e-015 -5.96354e-015
rhumerus -18.119 -25.4348 -1.23718
rradius 24.3081
rwrist 4.84627
rhand -18.7476 -18.8337
rfingers 7.12502
rthumb 7.54879 -48.679
lclavicle -4.83295e-015 -5.96354e-015
lhumerus -18.5687 25.4903 9.35637
lradius 23.7643
lwrist -18.197
lhand -16.538 16.5604
lfingers 7.12502
lthumb 9.6811 46.3179
rfemur -12.2872 -3.98446 14.7385
rtibia 27.9396
rfoot -16.4044 -17.1775
rtoes 1.81661
lfemur -15.8204 -8.99662 -4.83567
ltibia 29.4557
lfoot -13.8209 12.801
ltoes -9.50097
1599
root 0.574997 17.9346 -4.38391 6.39339 3.34378 -2.27882
lowerback 4.97385 -0.539911 0.0153806
upperback -2.14239 -0.626923 1.97154
thorax -4.9885 -0.276932 2.09319
lowerneck -21.1144 -3.40191 -4.1345
upperneck 9.50163 -4.39228 6.60078
head 6.5528 -1.69158 2.30311
rclavicle -3.97569e-015 1.07344e-014
rhumerus -18.1265 -25.4565 -1.23274
rradius 24.2438
rwrist 4.80661
rhand -18.6862 -18.9016
rfingers 7.12502
rthumb 7.60801 -48.7448
lclavicle -3.97569e-015 1.07344e-014
lhumerus -18.473 25.5051 9.41255
lradius 23.7263
lwrist -18.2389
lhand -16.5051 16.6145
lfingers 7.12502
lthumb 9.71289 46.3706
rfemur -12.2132 -3.99458 14.7615
rtibia 27.9438
rfoot -16.4444 -17.3177
rtoes 1.88521
lfemur -15.8137 -8.97409 -4.79408
ltibia 29.4302
lfoot -13.8226 12.5845
ltoes -9.83091
1600
root 0.581116 17.9329 -4.38094 6.35857 3.47475 -2.28972
lowerback 4.91066 -0.583129 0.0295121
upperback -2.11723 -0.68271 2.01715
thorax -4.92396 -0.304805 2.13634
lowerneck -21.0884 -3.44532 -4.14946
upperneck 9.48152 -4.45834 6.67996
head 6.54852 -1.71767 2.32358
rclavicle -1.93815e-015 1.72943e-014
rhumerus -18.1318 -25.4818 -1.23496
rradius 24.1876
rwrist 4.76773
rhand -18.6321 -18.9611
rfingers 7.12502
rthumb 7.66024 -48.8023
lclavicle -1.93815e-015 1.72943e-014
lhumerus -18.3767 25.519 9.46677
lradius 23.6887
lwrist -18.2719
lhand -16.4686 16.6876
lfingers 7.12502
lthumb 9.74805 46.442
rfemur -12.1347 -4.00382 14.7662
rtibia 27.9426
rfoot -16.4847 -17.4501
rtoes 1.94876
lfemur -15.803 -8.96765 -4.77061
ltibia 29.4059
lfoot -13.831 12.3854
ltoes -10.1288
1601
root 0.588977 17.9311 -4.3776 6.32488 3.5936 -2.29087
lowerback 4.84429 -0.62247 0.0354141
upperback -2.09468 -0.734133 2.05876
thorax -4.86041 -0.330324 2.17942
lowerneck -21.0606 -3.48736 -4.16437
upperneck 9.46899 -4.52203 6.75245
head 6.54615 -1.74315 2.34216
rclavicle -1.09332e-014 -2.78299e-015
rhumerus -18.1356 -25.5125 -1.24128
rradius 24.1405
rwrist 4.73321
rhand -18.5889 -19.0099
rfingers 7.12502
rthumb 7.70198 -48.8497
lclavicle -1.09332e-014 -2.78299e-015
lhumerus -18.2797 25.5299 9.52152
lradius 23.6539
lwrist -18.2945
lhand -16.4305 16.7718
lfingers 7.12502
lthumb 9.78482 46.5244
rfemur -12.0553 -4.01064 14.752
rtibia 27.9377
rfoot -16.5241 -17.5723
rtoes 2.00823
lfemur -15.787 -8.97836 -4.76643
ltibia 29.3822
lfoot -13.8465 12.2119
ltoes -10.3956
1602
root 0.59853 17.9294 -4.37388 6.29309 3.69691 -2.28247
lowerback 4.77514 -0.656504 0.0328599
upperback -2.07559 -0.779243 2.09653
thorax -4.79902 -0.352505 2.22258
lowerneck -21.0317 -3.52845 -4.18027
upperneck 9.46586 -4.5838 6.81882
head 6.54644 -1.76821 2.35915
rclavicle -4.91992e-015 1.27222e-014
rhumerus -18.1386 -25.5479 -1.24967
rradius 24.1037
rwrist 4.70477
rhand -18.5581 -19.0481
rfingers 7.12502
rthumb 7.73165 -48.8867
lclavicle -4.91992e-015 1.27222e-014
lhumerus -18.1812 25.5396 9.57828
lradius 23.6224
lwrist -18.3099
lhand -16.3927 16.8558
lfingers 7.12502
lthumb 9.82131 46.6067
rfemur -11.9773 -4.01436 14.719
rtibia 27.9304
rfoot -16.5613 -17.6824
rtoes 2.06367
lfemur -15.7643 -9.00512 -4.78188
ltibia 29.3585
lfoot -13.8689 12.0688
ltoes -10.6352
1603
root 0.609713 17.9277 -4.36977 6.26337 3.78217 -2.26501
lowerback 4.70353 -0.684305 0.0221622
upperback -2.06043 -0.816731 2.13063
thorax -4.74051 -0.3707 2.26574
lowerneck -21.0018 -3.56867 -4.19791
upperneck 9.47356 -4.64373 6.87954
head 6.54988 -1.79283 2.3748
rclavicle 5.29264e-015 0
rhumerus -18.1412 -25.587 -1.25859
rradius 24.0768
rwrist 4.68386
rhand -18.5395 -19.0748
rfingers 7.12502
rthumb 7.74966 -48.9128
lclavicle 5.29264e-015 0
lhumerus -18.0809 25.5499 9.63781
lradius 23.594
lwrist -18.3216
lhand -16.3573 16.9291
lfingers 7.12502
lthumb 9.85546 46.6784
rfemur -11.9023 -4.015 14.668
rtibia 27.922
rfoot -16.5952 -17.7785
rtoes 2.1137
lfemur -15.7336 -9.04489 -4.81681
ltibia 29.3344
lfoot -13.8981 11.9574
ltoes -10.8527
1604
root 0.62246 17.9261 -4.3653 6.23557 3.84802 -2.23916
lowerback 4.62987 -0.705506 0.00415317
upperback -2.04946 -0.846009 2.16114
thorax -4.68543 -0.384638 2.30852
lowerneck -20.9702 -3.60784 -4.21788
upperneck 9.49229 -4.70159 6.93538
head 6.55644 -1.81686 2.3895
rclavicle 1.48095e-014 -5.56597e-015
rhumerus -18.143 -25.6277 -1.26729
rradius 24.0591
rwrist 4.67015
rhand -18.5314 -19.0908
rfingers 7.12502
rthumb 7.75748 -48.9285
lclavicle 1.48095e-014 -5.56597e-015
lhumerus -17.9782 25.5657 9.69988
lradius 23.5678
lwrist -18.3357
lhand -16.3263 16.9839
lfingers 7.12502
lthumb 9.88533 46.7318
rfemur -11.8311 -4.0132 14.5999
rtibia 27.9135
rfoot -16.6245 -17.8594
rtoes 2.15606
lfemur -15.6937 -9.09321 -4.87053
ltibia 29.3101
lfoot -13.9336 11.8756
ltoes -11.0539
1605
root 0.63669 17.9244 -4.36046 6.20914 3.89389 -2.20512
lowerback 4.55476 -0.720158 -0.0206249
upperback -2.04267 -0.867079 2.18794
thorax -4.63414 -0.394332 2.35053
lowerneck -20.936 -3.64548 -4.24084
upperneck 9.52167 -4.75678 6.98768
head 6.56591 -1.83993 2.40388
rclavicle 3.50358e-015 -7.15625e-015
rhumerus -18.1435 -25.6671 -1.27566
rradius 24.0493
rwrist 4.66213
rhand -18.5315 -19.0973
rfingers 7.12502
rthumb 7.75738 -48.935
lclavicle 3.50358e-015 -7.15625e-015
lhumerus -17.874 25.5873 9.76392
lradius 23.5437
lwrist -18.3538
lhand -16.3013 17.0165
lfingers 7.12502
lthumb 9.90952 46.7633
rfemur -11.7638 -4.00992 14.5152
rtibia 27.9056
rfoot -16.6483 -17.9245
rtoes 2.18785
lfemur -15.644 -9.14493 -4.94264
ltibia 29.2855
lfoot -13.9749 11.8189
ltoes -11.243
1606
root 0.652301 17.9228 -4.35531 6.18352 3.9197 -2.16339
lowerback 4.47877 -0.728562 -0.0513952
upperback -2.03959 -0.880274 2.21093
thorax -4.58648 -0.399974 2.3913
lowerneck -20.9003 -3.68102 -4.26787
upperneck 9.5617 -4.80853 7.03857
head 6.57846 -1.86152 2.41888
rclavicle -7.45443e-017 1.98785e-015
rhumerus -18.1412 -25.7038 -1.28434
rradius 24.0453
rwrist 4.65778
rhand -18.5376 -19.0957
rfingers 7.12502
rthumb 7.75144 -48.9336
lclavicle -7.45443e-017 1.98785e-015
lhumerus -17.769 25.6158 9.82897
lradius 23.5217
lwrist -18.3773
lhand -16.2832 17.0278
lfingers 7.12502
lthumb 9.92698 46.7738
rfemur -11.7005 -4.0054 14.4148
rtibia 27.8992
rfoot -16.6655 -17.9741
rtoes 2.20588
lfemur -15.5843 -9.19456 -5.03205
ltibia 29.2607
lfoot -14.0217 11.7809
ltoes -11.4207
1607
root 0.669181 17.9212 -4.3499 6.15825 3.92604 -2.11329
lowerback 4.40245 -0.731247 -0.0883925
upperback -2.03955 -0.886321 2.22963
thorax -4.54205 -0.401929 2.43055
lowerneck -20.8645 -3.71381 -4.30045
upperneck 9.61242 -4.85601 7.09112
head 6.59443 -1.88097 2.43585
rclavicle 3.62782e-015 -1.31198e-014
rhumerus -18.1353 -25.7351 -1.29453
rradius 24.0453
rwrist 4.65356
rhand -18.5479 -19.0888
rfingers 7.12502
rthumb 7.74153 -48.9271
lclavicle 3.62782e-015 -1.31198e-014
lhumerus -17.6649 25.6497 9.89387
lradius 23.5027
lwrist -18.405
lhand -16.2719 17.0227
lfingers 7.12502
lthumb 9.93783 46.7681
rfemur -11.6411 -4.00005 14.2986
rtibia 27.8951
rfoot -16.6755 -18.0093
rtoes 2.20638
lfemur -15.515 -9.23727 -5.13881
ltibia 29.2358
lfoot -14.0737 11.7545
ltoes -11.5862
